<svg width="1200" height="640" viewBox="0 0 1200 640" fill="none" xmlns="http://www.w3.org/2000/svg">
  <defs>
    <linearGradient id="bg" x1="96" y1="64" x2="1104" y2="592" gradientUnits="userSpaceOnUse">
      <stop stop-color="#F6E4D7"/>
      <stop offset="0.5" stop-color="#E9C7AF"/>
      <stop offset="1" stop-color="#D79A78"/>
    </linearGradient>
    <linearGradient id="panel" x1="0" y1="0" x2="1" y2="1">
      <stop stop-color="#FFF9F4" stop-opacity="0.86"/>
      <stop offset="1" stop-color="#F8E9DE" stop-opacity="0.62"/>
    </linearGradient>
    <linearGradient id="accentCoral" x1="0" y1="0" x2="1" y2="1">
      <stop stop-color="#F28463"/>
      <stop offset="1" stop-color="#D9654A"/>
    </linearGradient>
    <linearGradient id="accentGold" x1="0" y1="0" x2="1" y2="1">
      <stop stop-color="#E7B36E"/>
      <stop offset="1" stop-color="#CC8F45"/>
    </linearGradient>
    <linearGradient id="accentRose" x1="0" y1="0" x2="1" y2="1">
      <stop stop-color="#D98972"/>
      <stop offset="1" stop-color="#BC6955"/>
    </linearGradient>
    <linearGradient id="flow" x1="438" y1="348" x2="682" y2="438" gradientUnits="userSpaceOnUse">
      <stop stop-color="#DA755B"/>
      <stop offset="1" stop-color="#8F4332"/>
    </linearGradient>
    <filter id="blur" x="0" y="0" width="1200" height="640" filterUnits="userSpaceOnUse" color-interpolation-filters="sRGB">
      <feGaussianBlur stdDeviation="46"/>
    </filter>
    <filter id="shadow" x="0" y="0" width="1200" height="640" filterUnits="userSpaceOnUse" color-interpolation-filters="sRGB">
      <feDropShadow dx="0" dy="18" stdDeviation="28" flood-color="#7F3B2C" flood-opacity="0.16"/>
    </filter>
  </defs>

  <rect width="1200" height="640" rx="36" fill="url(#bg)"/>

  <g filter="url(#blur)" opacity="0.72">
    <circle cx="220" cy="122" r="128" fill="#F3C09B"/>
    <circle cx="970" cy="132" r="112" fill="#E07D61"/>
    <circle cx="900" cy="500" r="126" fill="#B9654E"/>
  </g>

  <rect x="64" y="64" width="1072" height="512" rx="30" fill="#FFF8F1" fill-opacity="0.22" stroke="#FFF6EE" stroke-opacity="0.44"/>

  <text x="104" y="136" fill="#2A1815" font-family="Segoe UI, Arial, sans-serif" font-size="46" font-weight="700">Better Tidy Tabs</text>
  <text x="104" y="176" fill="#5D3D35" font-family="Segoe UI, Arial, sans-serif" font-size="22">
    <tspan x="104" dy="0">A calmer sidebar for people who work with</tspan>
    <tspan x="104" dy="28">too many tabs open.</tspan>
  </text>

  <g filter="url(#shadow)">
    <rect x="98" y="224" width="302" height="272" rx="26" fill="url(#panel)" stroke="#ECD4C3"/>
    <text x="126" y="264" fill="#3A241F" font-family="Segoe UI, Arial, sans-serif" font-size="20" font-weight="600">Before</text>
    <text x="126" y="288" fill="#7B594F" font-family="Segoe UI, Arial, sans-serif" font-size="14">
      <tspan x="126" dy="0">Loose tabs, mixed context,</tspan>
      <tspan x="126" dy="18">constant visual noise</tspan>
    </text>

    <rect x="126" y="318" width="230" height="34" rx="17" fill="#E8D3C6"/>
    <rect x="126" y="366" width="204" height="34" rx="17" fill="#EEDFD5"/>
    <rect x="126" y="414" width="242" height="34" rx="17" fill="#E6C9B9"/>
    <rect x="126" y="462" width="186" height="34" rx="17" fill="#F1E3D9"/>
    <circle cx="148" cy="335" r="7" fill="#A67264"/>
    <circle cx="148" cy="383" r="7" fill="#A67264"/>
    <circle cx="148" cy="431" r="7" fill="#A67264"/>
    <circle cx="148" cy="479" r="7" fill="#A67264"/>
  </g>

  <path d="M438 358C490 358 504 314 556 314C610 314 618 394 682 394" stroke="url(#flow)" stroke-width="10" stroke-linecap="round"/>
  <path d="M438 404C508 404 520 454 580 454C628 454 650 420 682 420" stroke="#E5A56D" stroke-width="10" stroke-linecap="round"/>

  <g filter="url(#shadow)">
    <rect x="714" y="194" width="392" height="326" rx="28" fill="url(#panel)" stroke="#ECD4C3"/>
    <text x="744" y="238" fill="#3A241F" font-family="Segoe UI, Arial, sans-serif" font-size="20" font-weight="600">After</text>
    <text x="744" y="262" fill="#7B594F" font-family="Segoe UI, Arial, sans-serif" font-size="14">
      <tspan x="744" dy="0">Related work grouped together,</tspan>
      <tspan x="744" dy="18">everything else left in Others</tspan>
    </text>

    <rect x="744" y="294" width="150" height="170" rx="24" fill="url(#accentCoral)" fill-opacity="0.22" stroke="#DA755B" stroke-opacity="0.78"/>
    <text x="768" y="328" fill="#2A1815" font-family="Segoe UI, Arial, sans-serif" font-size="16" font-weight="700">Research</text>
    <rect x="764" y="346" width="98" height="14" rx="7" fill="#FFF8F1"/>
    <rect x="764" y="372" width="86" height="14" rx="7" fill="#F7E5D8"/>
    <rect x="764" y="398" width="110" height="14" rx="7" fill="#EEC4AF"/>

    <rect x="916" y="294" width="150" height="170" rx="24" fill="url(#accentGold)" fill-opacity="0.24" stroke="#CC8F45" stroke-opacity="0.76"/>
    <text x="940" y="328" fill="#2A1815" font-family="Segoe UI, Arial, sans-serif" font-size="16" font-weight="700">Build</text>
    <rect x="936" y="346" width="102" height="14" rx="7" fill="#FFF8F1"/>
    <rect x="936" y="372" width="76" height="14" rx="7" fill="#F6E8D8"/>
    <rect x="936" y="398" width="114" height="14" rx="7" fill="#EBCB9E"/>

    <rect x="830" y="478" width="148" height="28" rx="14" fill="url(#accentRose)" fill-opacity="0.22" stroke="#BC6955" stroke-opacity="0.74"/>
    <text x="857" y="497" fill="#2A1815" font-family="Segoe UI, Arial, sans-serif" font-size="14" font-weight="700">Others</text>
  </g>
</svg>
